<svg xmlns:svg="http://www.w3.org/2000/svg" xmlns="http://www.w3.org/2000/svg" id="svg6067" version="1.1" width="720.9694544949327" height="138.70213138232592" viewBox="-1.40976987 -1.40976987 259.20015974 49.81186874">
  <defs id="defs6064"/>
  <path id="path5904" d="m 36.368915,0 c -1.17937,0 -1.45524,1.22348 -1.80469,3.21094 -0.34944,1.98745 -0.57474,5.34992 -0.6621,6.92969 l -2.02344,0.13867 c 0.10192,0.2184 0.20365,0.43589 0.29101,0.65429 l 2.07422,-0.12304 a 0.32760223,0.32760223 0 0 0 0.3125,-0.3125 c 0.0728,-1.45601 0.29136,-4.95182 0.66992,-7.15039 0.37857,-2.19858 0.6257,-2.61914 1.14258,-2.61914 0.51689,0 0.77325,0.54503 1.14453,2.65625 0.37129,2.11121 0.58789,5.72882 0.66797,7.14843 a 0.32760223,0.32760223 0 0 0 0.30664,0.31446 l 2.58399,0.17382 v -0.66992 l -2.24219,-0.16015 A 68.825589,68.825589 0 0 0 38.167745,3.26172 C 37.825585,1.24515 37.548285,0 36.368915,0 Z m -7.6289,10.50391 -8.67774,0.56836 V 11.75 l 2.875,-0.18945 6.02149,-0.39258 c -0.0437,-0.16744 -0.19691,-0.60582 -0.21875,-0.66406 z m 15.63086,0.0293 v 0.66992 l 8.40039,0.54687 v -0.66992 z m -27.6211,0.75781 c -6.22444,0.40768 -11.95396,0.78604 -13.78125,0.93164 -2.06025001,0.15288 -2.88281001,0.65604 -2.96289001,1.74804 -0.10192,1.35409 1.17908001,2.40233 3.81445001,3.12305 l 12.92969,3.57422 v -0.72852 l -12.7539,-3.49414 c -1.56522,-0.42952 -3.41496001,-1.20078 -3.32032001,-2.42383 0,-0.39312 0.0724,-0.9469 2.34375001,-1.1289 1.82002,-0.1456 7.52787,-0.52396 13.73047,-0.93164 z m 39.32031,0.008 v 0.66992 c 6.17349,0.4004 11.83713,0.77822 13.64258,0.92383 2.27866,0.18201 2.32244,0.72851 2.35156,1.12891 0.0946,1.22305 -1.7551,1.99431 -3.32031,2.42383 l -12.67383,3.50977 v 0.72656 l 12.84766,-3.55273 c 2.60626,-0.75713 3.91833,-1.80412 3.81641,-3.15821 -0.0874,-1.092 -0.9172,-1.5806 -2.96289,-1.74804 -1.82002,-0.1456 -7.50585,-0.52343 -13.70118,-0.92383 z m -3.30664,9.5371 -8.39257,2.36524 v 0.69922 l 8.39257,-2.33789 z m -32.70117,0.0566 v 0.72852 l 8.0957,2.24219 c 0.10921,-0.2184 0.21058,-0.41441 0.3125,-0.63282 z m 11.18164,3.10157 c -0.11648,0.20384 -0.24733,0.39328 -0.37109,0.58984 l 3.16015,0.89648 c 0.0655,0.84449 0.22567,3.00615 0.4004,5.38672 h 0.043 0.64843 c -0.19656,-2.66448 -0.37091,-5.09673 -0.42187,-5.67186 a 0.33488228,0.33488228 0 0 0 -0.23243,-0.29101 c -0.18928,-0.0582 -1.39199,-0.40056 -3.22656,-0.91016 z m 9.82227,0.0957 -2.77539,0.78515 a 0.33488228,0.33488228 0 0 0 -0.23242,0.29102 c -0.051,0.59696 -0.2326,3.0001 -0.42188,5.67187 h 0.625 v 0.0293 h 0.0449 c 0.17472,-2.38057 0.33487,-4.54223 0.40039,-5.38672 l 2.35938,-0.66406 z m -6.30469,11.32031 0.26953,3.77734 c -3.54538,0.47321 -6.26983,1.24571 -8.16992,2.3086 -2.06025,1.18664 -2.44602,1.79863 -2.40234,2.41015 0.0801,1.09929 1.15053,1.405 2.14062,1.60157 a 65.891729,65.891729 0 0 0 9.09961,0.61914 c 0.12376,0.41496 0.26206,0.82883 0.64063,0.86523 h 0.0586 c 0.37856,0 0.51686,-0.45027 0.64062,-0.86523 a 65.891729,65.891729 0 0 0 9.10156,-0.61914 c 0.99009,-0.19657 2.05274,-0.50228 2.13282,-1.60157 0.051,-0.5824 -0.33623,-1.19438 -2.39649,-2.41015 -1.90009,-1.09201 -4.64442,-1.86451 -8.16797,-2.3086 l 0.26953,-3.77734 h -0.66992 c -0.15288,2.18401 -0.27592,3.87997 -0.2832,4.05469 a 0.34216233,0.34216233 0 0 0 0.29883,0.35742 c 3.58178,0.41496 6.34831,1.17841 8.22656,2.25586 2.10393,1.20849 2.07369,1.62446 2.06641,1.77734 -0.0364,0.44408 -0.29844,0.72673 -1.60157,0.9961 a 67.915582,67.915582 0 0 1 -9.21679,0.60546 0.33488228,0.33488228 0 0 0 -0.3125,0.23243 c 0,0.0582 -0.0446,0.13174 -0.0664,0.19726 -0.0218,0.0655 7.1e-4,0.0863 -0.043,0.14453 0,-0.0582 7.1e-4,-0.10085 -0.043,-0.14453 -0.0437,-0.0437 -0.0446,-0.13902 -0.0664,-0.19726 a 0.33488228,0.33488228 0 0 0 -0.3125,-0.23243 67.799102,67.799102 0 0 1 -9.2168,-0.60546 c -1.30313,-0.26209 -1.56516,-0.55202 -1.60156,-0.9961 0,-0.15288 -0.0356,-0.56885 2.06836,-1.77734 1.87825,-1.07745 4.64477,-1.8409 8.22656,-2.25586 a 0.34216233,0.34216233 0 0 0 0.29687,-0.35742 c 0,-0.17472 -0.13032,-1.87796 -0.2832,-4.05469 z" style="fill:#221e1f;fill-opacity:1;stroke-width:0.72800493"/>
  <path id="path5924" d="m 30.909935,31.39844 c -0.0437,0 -3.6e-4,-7.1e-4 -0.0586,0.043 a 1.4560099,1.4560099 0 0 1 -0.50196,0.21875 c 0,0 -0.0449,0.001 -0.0449,0.0449 v 0.0566 a 0.16016109,0.16016109 0 0 1 0,0.15429 l -0.43554,1.16407 c -0.1456,0.38584 -0.46715,1.16512 -0.52539,1.25976 a 0.37128253,0.37128253 0 0 1 -0.30469,0.18946 h -0.11719 v 0.043 0.0879 0.0508 h 1.10742 c 0,0 0.043,7.1e-4 0.043,-0.043 v -0.10352 h -0.0508 -0.16015 c -0.13104,0 -0.16797,-0.1012 -0.16797,-0.20312 a 6.4210037,6.4210037 0 0 1 0.21094,-0.87305 h 0.97656 c 0.0582,0.16016 0.22585,0.72851 0.26953,0.88867 0.0437,0.16016 -0.0144,0.15234 -0.13086,0.15234 h -0.13086 v 0.043 0.0879 c 0,0 -7.1e-4,0.0508 0.043,0.0508 h 1.36133 c 0.0364,0 0.043,1.8e-4 0.043,-0.0508 v -0.0879 -0.043 h -0.15234 a 0.33488228,0.33488228 0 0 1 -0.26172,-0.19726 c -0.0582,-0.12376 -0.88139,-2.57688 -0.96875,-2.85352 0,-0.051 7.1e-4,-0.0801 -0.043,-0.0801 z m 8.19726,0 c -0.051,0 1.8e-4,-7.1e-4 -0.0508,0.043 a 1.4560099,1.4560099 0 0 1 -0.50195,0.21875 c 0,0 -0.0449,0.001 -0.0449,0.0449 a 0.14560099,0.14560099 0 0 0 0,0.0566 c 0.0364,0.051 0,0.11061 0,0.15429 l -0.43555,1.16407 c -0.1456,0.38584 -0.46715,1.16512 -0.52539,1.25976 a 0.37128253,0.37128253 0 0 1 -0.30468,0.18946 h -0.1172 v 0.043 0.0879 0.0508 h 1.0918 c 0.0364,0 0.0371,7.1e-4 0.0371,-0.043 v -0.10352 h -0.0449 -0.17383 c -0.13104,0 -0.16796,-0.1012 -0.16796,-0.20312 a 5.4745973,5.4745973 0 0 1 0.24023,-0.87305 h 0.97656 c 0.051,0.16016 0.22585,0.72851 0.26953,0.88867 0.0437,0.16016 -0.0149,0.15234 -0.13867,0.15234 h -0.125 v 0.043 0.0879 c 0,0 10e-4,0.0508 0.0449,0.0508 h 1.36133 c 0,0 0.043,1.8e-4 0.043,-0.0508 v -0.0879 -0.043 h -0.15235 a 0.33488228,0.33488228 0 0 1 -0.26172,-0.19726 c -0.0582,-0.12376 -0.34925,-0.94548 -0.45117,-1.29492 -0.10192,-0.34944 -0.43021,-1.28195 -0.51758,-1.55859 0,-0.051 1.8e-4,-0.0801 -0.0508,-0.0801 z m 8.20508,0 c -0.051,0 -3.5e-4,-7.1e-4 -0.0586,0.043 a 1.4123296,1.4123296 0 0 1 -0.49609,0.21875 c 0,0 -0.043,0.001 -0.043,0.0449 a 0.14560099,0.14560099 0 0 0 0,0.0566 0.18928129,0.18928129 0 0 1 0,0.15429 c 0,0.11649 -0.4011,1.06943 -0.4375,1.16407 -0.1456,0.38584 -0.45792,1.16512 -0.52344,1.25976 a 0.37128253,0.37128253 0 0 1 -0.29883,0.18946 h -0.11719 v 0.043 0.0879 0.0508 h 1.09375 v -0.043 -0.10352 h -0.0508 -0.15429 c -0.13104,0 -0.17383,-0.1012 -0.17383,-0.20312 a 5.4673172,5.4673172 0 0 1 0.3125,-0.87305 h 0.97656 c 0.051,0.16016 0.22532,0.72851 0.26172,0.88867 0.0364,0.16016 1.8e-4,0.16016 -0.13086,0.16016 h -0.125 v 0.043 0.0879 c 0,0 -1.8e-4,0.0508 0.0508,0.0508 h 1.36133 v -0.0508 -0.0879 c 0,0 0.008,-0.0508 -0.0215,-0.0508 h -0.15234 a 0.32032218,0.32032218 0 0 1 -0.25586,-0.19727 c -0.0655,-0.12376 -0.34925,-0.94548 -0.45118,-1.29492 -0.10192,-0.34944 -0.43554,-1.28195 -0.51562,-1.55859 0,-0.051 1.8e-4,-0.0801 -0.0508,-0.0801 z m -4.375,0.0625 a 2.1840149,2.1840149 0 0 0 -0.28515,0.01 h -0.66211 -0.72852 v 0.13086 h 0.0371 0.21875 c 0.0728,0 0.12997,-1.8e-4 0.14453,0.13086 0.0146,0.13104 0.0156,2.60067 0.0156,2.69531 0,0.0728 -0.0591,0.10156 -0.14648,0.10156 h -0.22461 v 0.11524 h 1.45508 a 2.0311338,2.0311338 0 0 0 1.45507,-0.46485 1.6016109,1.6016109 0 0 0 0.4375,-1.17187 1.4123296,1.4123296 0 0 0 -0.49414,-1.12891 2.1840149,2.1840149 0 0 0 -1.22265,-0.41797 z m -16.07617,0.0176 a 1.5433705,1.5433705 0 0 0 -1.17773,0.48047 1.7472119,1.7472119 0 0 0 -0.45899,1.20898 1.7035316,1.7035316 0 0 0 0.48633,1.18555 1.6016109,1.6016109 0 0 0 1.1875,0.4082 1.5797708,1.5797708 0 0 0 1.31055,-0.72851 v -0.0508 l -0.0723,-0.0644 h -0.0664 a 1.2667286,1.2667286 0 0 1 -1.04883,0.48046 0.93912639,0.93912639 0 0 1 -0.72656,-0.33593 1.8272924,1.8272924 0 0 1 -0.39454,-1.15625 c 0.051,-0.63337 0.32864,-1.22461 0.97657,-1.22461 a 1.026487,1.026487 0 0 1 0.72851,0.33594 1.3395291,1.3395291 0 0 1 0.35547,0.59765 c 0,0.0364 3.5e-4,0.0575 0.0586,0.043 h 0.0937 v -0.0586 c 0,-0.0582 -0.10156,-0.88725 -0.10156,-0.97461 0,-0.0874 5.3e-4,-0.0742 -0.0723,-0.0742 h -0.0879 l -0.006,0.11719 h -0.0957 a 1.9656134,1.9656134 0 0 0 -0.88867,-0.18945 z m 6.16016,0.12304 v 0.125 h 0.10937 c 0.22568,0 0.38477,0.25355 0.38477,0.51563 v 0.40039 c 0,0.66248 7.1e-4,1.36967 -0.043,1.45703 0,0.29848 -0.0948,0.4375 -0.18946,0.4375 h -0.15234 v 0.11524 h 1.01172 v -0.10938 -0.043 h -0.11719 c -0.182,0 -0.26278,-0.13192 -0.27734,-0.38672 -0.0146,-0.2548 -0.043,-0.72726 -0.043,-1.08398 v -0.87305 h 0.0293 c 0.10192,0.1456 1.23046,1.52769 1.55078,1.90625 0.32032,0.37856 0.48775,0.54634 0.56055,0.61914 a 0.24024164,0.24024164 0 0 0 0.17382,0.0723 c 0.0655,0 0.0664,-0.079 0.0664,-0.14453 v -0.72852 c 0,-0.5824 0.0724,-1.58628 0.10157,-1.88476 0,-0.16016 0.0586,-0.24024 0.13867,-0.24024 h 0.12305 V 31.6465 h -0.043 -0.42188 -0.52539 -0.0352 v 0.10938 h 0.14453 a 0.23296159,0.23296159 0 0 1 0.23438,0.17383 c 0,0.0655 -7.2e-4,0.50301 0.043,0.67773 0.0437,0.17472 0,0.44282 0,0.83594 v 0.40039 l -1.79102,-2.18359 a 0.15288104,0.15288104 0 0 0 -0.13086,-0.0586 z m 9.58007,0.125 a 0.55328377,0.55328377 0 0 1 0.13868,0.0137 1.3031289,1.3031289 0 0 1 0.88086,0.4004 1.5069703,1.5069703 0 0 1 0.36328,0.96875 1.769052,1.769052 0 0 1 -0.3125,1.01953 1.0774473,1.0774473 0 0 1 -0.83789,0.42968 0.32760223,0.32760223 0 0 1 -0.42969,-0.34179 v -2.2793 a 0.20384139,0.20384139 0 0 1 0.0879,-0.19727 0.55328377,0.55328377 0 0 1 0.10937,-0.0137 z m -12.14257,0.30469 c 0.051,0 -1.8e-4,10e-4 0.0508,0.0957 0.051,0.0946 0.2903,1.04865 0.33398,1.17969 h -0.88086 c 0.0364,-0.1092 0.42347,-1.16637 0.44531,-1.22461 0.0218,-0.0582 -1.8e-4,-0.0508 0.0508,-0.0508 z m 8.20312,0 c 0.051,0 0.002,10e-4 0.0527,0.0957 0.051,0.0946 0.2903,1.04865 0.33398,1.17969 h -0.88085 c 0,-0.1092 0.42151,-1.16637 0.44335,-1.22461 0.0218,-0.0582 -1.7e-4,-0.0508 0.0508,-0.0508 z m 8.25586,0 c 0.0582,0 0.001,10e-4 0.0449,0.0957 0.0437,0.0946 0.29758,1.04865 0.33398,1.17969 h -0.87304 c 0,-0.1092 0.41566,-1.16637 0.4375,-1.22461 0.0218,-0.0582 -0.002,-0.0508 0.0566,-0.0508 z" style="fill:#221e1f;fill-opacity:1;stroke-width:0.72800493"/>
  <path id="path5936" d="m 24.105245,5.38086 a 6.7049257,6.7049257 0 0 0 -1.10156,0.14453 c -1.51425,0.29848 -3.0067,0.72868 -4.51367,1.07813 a 17.049876,17.049876 0 0 1 -2.02344,0.23242 h -0.13867 a 0.17472119,0.17472119 0 0 0 -0.16016,0.16797 v 0.11523 a 0.13832094,0.13832094 0 0 0 0.13867,0.14649 h 0.10156 c 0.51689,-0.0364 0.99663,0.51666 1.00391,1.33203 l 0.008,15.89843 c 0,0.81537 -0.48702,1.37767 -1.00391,1.33399 h -0.11718 a 0.13104089,0.13104089 0 0 0 -0.13868,0.12305 v 0.15234 a 0.12376084,0.12376084 0 0 0 0.11719,0.13086 h 0.16016 a 17.530359,17.530359 0 0 1 2.05273,0.22656 c 1.50697,0.3276 2.99942,0.77964 4.51367,1.07813 a 6.7049257,6.7049257 0 0 0 2.43946,0.0723 c 2.27137,-0.40769 3.96019,-1.86429 5.20508,-3.96094 a 14.916822,14.916822 0 0 0 1.79687,-7.11914 12.572646,12.572646 0 0 0 -1.79687,-7.1211 c -1.24488,-2.10393 -2.91185,-3.55858 -5.20507,-3.95898 a 6.7049257,6.7049257 0 0 0 -1.33789,-0.0723 z m 16.60547,0.21484 a 0.13104089,0.13104089 0 0 0 -0.125,0.13282 V 5.9043 a 0.12376084,0.12376084 0 0 0 0.10742,0.12304 1.2958488,1.2958488 0 0 1 0.72852,0.30665 2.0748141,2.0748141 0 0 1 0.3125,1.18554 v 18.92774 a 1.9728934,1.9728934 0 0 1 -0.30469,1.21679 1.8709727,1.8709727 0 0 1 -0.72852,0.42969 0.13832094,0.13832094 0 0 0 -0.0801,0.11523 v 0.24024 a 0.12376084,0.12376084 0 0 0 0.16797,0.11719 c 0.41496,-0.1456 1.45613,-0.51722 1.8711,-0.61914 0.41496,-0.10192 1.4556,-0.29723 1.7832,-0.35547 a 0.13104089,0.13104089 0 0 0 0.10156,-0.13086 v -0.1543 a 0.12376084,0.12376084 0 0 0 -0.15234,-0.12305 0.65520446,0.65520446 0 0 1 -0.44336,-0.0586 c -0.2912,-0.17472 -0.24024,-0.72796 -0.24024,-1.52148 v -8.94727 a 0.24752169,0.24752169 0 0 1 0.25391,-0.2539 h 9.2168 a 0.26208178,0.26208178 0 0 1 0.26172,0.2539 v 7.11914 a 1.9728934,1.9728934 0 0 1 -0.3125,1.15039 1.9656134,1.9656134 0 0 1 -0.72852,0.4375 0.11648079,0.11648079 0 0 0 -0.0879,0.11719 v 0.18164 a 0.13104089,0.13104089 0 0 0 0.16797,0.12305 c 0.41496,-0.1456 1.45613,-0.52308 1.87109,-0.625 0.41497,-0.10192 1.4556,-0.29918 1.78321,-0.35742 a 0.12376084,0.12376084 0 0 0 0.10156,-0.12305 v -0.10937 a 0.12376084,0.12376084 0 0 0 -0.15235,-0.125 0.61880421,0.61880421 0 0 1 -0.44335,-0.0566 c -0.29121,-0.17473 -0.24024,-0.72939 -0.24024,-1.51563 V 8.64847 c 0,-0.77169 1.7e-4,-1.27503 0.26953,-1.45703 a 0.8517658,0.8517658 0 0 1 0.43555,-0.10742 0.13104089,0.13104089 0 0 0 0.13086,-0.125 v -0.0801 a 0.12376084,0.12376084 0 0 0 -0.13086,-0.13086 h -1.79687 a 17.61044,17.61044 0 0 1 -1.8418,-0.27735 0.12376084,0.12376084 0 0 0 -0.1543,0.125 v 0.11524 a 0.12376084,0.12376084 0 0 0 0.0957,0.125 1.7472119,1.7472119 0 0 1 0.72852,0.38476 1.8200124,1.8200124 0 0 1 0.30468,1.09961 v 6.9668 a 0.26208178,0.26208178 0 0 1 -0.26171,0.25586 h -9.22461 a 0.25480173,0.25480173 0 0 1 -0.25391,-0.25586 V 7.85548 c 0,-0.72801 1.7e-4,-1.26775 0.26953,-1.45703 a 0.8372057,0.8372057 0 0 1 0.43555,-0.10156 0.13104089,0.13104089 0 0 0 0.13086,-0.12305 v -0.0957 a 0.12376084,0.12376084 0 0 0 -0.12305,-0.13086 c -0.33488,0 -1.20825,7.1e-4 -1.8125,-0.043 a 14.836741,14.836741 0 0 1 -1.86328,-0.30664 0.13104089,0.13104089 0 0 0 -0.0273,-0.002 z m -16.28516,0.62696 a 4.848513,4.848513 0 0 1 3.0918,1.20898 6.6321252,6.6321252 0 0 1 1.92187,3.0293 21.840149,21.840149 0 0 1 0.87305,4.18554 23.034077,23.034077 0 0 1 0,3.78711 16.933395,16.933395 0 0 1 -0.87305,4.18555 6.6685254,6.6685254 0 0 1 -1.92187,3.02734 4.848513,4.848513 0 0 1 -4.5293,1.02735 12.747367,12.747367 0 0 1 -2.5039,-0.93945 2.0456939,2.0456939 0 0 1 -1.0918,-1.99415 V 9.33984 a 1.9728934,1.9728934 0 0 1 1.0918,-1.99414 17.093556,17.093556 0 0 1 2.5039,-0.93945 4.848513,4.848513 0 0 1 1.4375,-0.18359 z" style="fill:#221e1f;fill-opacity:1;stroke-width:0.72800493"/>
  <path id="path5940" d="m 248.21267,9.83594 c -0.051,0 -0.14649,0.0421 -0.14649,0.21679 l -0.59765,2.2793 a 0.09464064,0.09464064 0 0 0 0.0508,0.12305 l 0.24804,0.0879 c 0.0582,0.0218 0.095,-0.0297 0.13868,-0.0879 0.23296,-0.42224 0.6992,-1.23739 1.09961,-1.41211 a 6.7777261,6.7777261 0 0 1 1.80468,-0.17383 h 0.34961 l 0.0371,3.09375 c 0,0.2548 -7.1e-4,4.03959 -0.0371,4.36719 a 0.37856258,0.37856258 0 0 1 -0.41406,0.33594 h -0.72852 c -0.051,0 -0.0879,0.0209 -0.0879,0.0937 v 0.28515 c 0,0.1092 -0.079,0.10938 0.0957,0.10938 0.17472,0 0.62478,-0.0371 1.95703,-0.0371 1.33225,0 1.73366,0.0371 1.85742,0.0371 0.12376,0 0.12305,-0.0444 0.12305,-0.11719 v -0.26172 c 0,-0.0655 -0.0286,-0.10937 -0.0723,-0.10937 h -0.72851 c -0.29849,0 -0.42188,-0.24696 -0.42188,-1.19336 v -6.60352 h 0.34961 a 5.9914808,5.9914808 0 0 1 1.90625,0.22461 5.0232342,5.0232342 0 0 1 0.97656,1.38477 c 0.0364,0.10192 0.0584,0.10156 0.10938,0.10156 l 0.24804,-0.0879 c 0.051,-0.0146 0.0508,-0.0366 0.0508,-0.10938 -0.10192,-0.59696 -0.34926,-2.19868 -0.3711,-2.35156 -0.0218,-0.15288 -0.0522,-0.19531 -0.125,-0.19531 -0.0728,0 -0.12269,0.043 -0.22461,0.12305 a 2.3660161,2.3660161 0 0 1 -0.88867,0.32031 c -0.56784,0.0218 -1.09175,0.0723 -2.45312,0.0723 h -0.66211 c -1.21577,0 -1.73258,-0.0723 -2.40235,-0.0723 a 1.1211276,1.1211276 0 0 1 -0.84568,-0.32031 c -0.0728,-0.0801 -0.14435,-0.12305 -0.19531,-0.12305 z m -126.08399,0.0937 c -0.0582,0 -0.10884,0.0502 -0.18164,0.12304 a 3.8948265,3.8948265 0 0 1 -1.22265,0.61915 c -0.12376,0.0291 -0.125,0.074 -0.125,0.125 a 0.32760223,0.32760223 0 0 0 0.0723,0.15234 c 0.10192,0.0728 0,0.2903 0,0.41406 l -1.20703,3.24805 c -0.37128,1.03377 -1.26686,3.26064 -1.39062,3.48633 -0.21841,0.38584 -0.44495,0.56054 -0.78711,0.56054 h -0.3711 c -0.0801,0 -0.0801,0.0229 -0.0801,0.0957 v 0.23243 c 0,0.0874 -0.0874,0.16015 0.0801,0.16015 0.16744,0 0.5314,-0.0371 1.36133,-0.0371 0.82993,0 1.46395,0.0371 1.55859,0.0371 0.0947,0 0.0937,-0.0444 0.0937,-0.11719 v -0.3125 c 0,-0.0582 -0.0211,-0.0586 -0.12304,-0.0586 h -0.51758 c -0.24752,0 -0.44336,-0.13866 -0.44336,-0.29882 a 1.2157683,1.2157683 0 0 1 0,-0.26172 c 0.0437,-0.33489 0.66956,-2.1028 0.77148,-2.38672 h 2.86133 c 0.13104,0.45864 0.6266,2.03692 0.72852,2.48828 0.0728,0.33488 -0.0216,0.45898 -0.3711,0.45898 h -0.32031 c -0.10192,0 -0.10351,0.0229 -0.10351,0.0957 v 0.2461 c 0,0.0728 0.0304,0.14648 0.125,0.14648 0.27664,0 0.69137,-0.0371 1.73242,-0.0371 1.36137,0 1.6083,0.0371 1.83398,0.0371 0.12376,0 0.12305,-0.0737 0.12305,-0.14648 v -0.26172 c 0,-0.0801 -0.0288,-0.0801 -0.10156,-0.0801 h -0.37891 A 0.93912639,0.93912639 0 0 1 124.9529,18.0839 c -0.17472,-0.33488 -0.96856,-2.63669 -1.25976,-3.59765 -0.22569,-0.79353 -1.19371,-3.56567 -1.41211,-4.33008 -0.0291,-0.0728 -0.0941,-0.22656 -0.15235,-0.22656 z m 38.45313,0 c -0.0582,0 -0.10884,0.0502 -0.18164,0.12304 a 3.8584263,3.8584263 0 0 1 -1.23047,0.61915 c -0.12376,0.0291 -0.12305,0.074 -0.12305,0.125 a 0.28392193,0.28392193 0 0 0 0.0801,0.15234 c 0.10192,0.0728 0,0.2903 0,0.41406 l -1.20898,3.24805 c -0.37129,1.03377 -1.26687,3.26064 -1.39063,3.48633 a 0.87360595,0.87360595 0 0 1 -0.79297,0.56054 h -0.37304 c -0.0728,0 -0.0723,0.0229 -0.0723,0.0957 v 0.23243 c 0,0.0874 -0.10246,0.16015 0.0723,0.16015 0.17472,0 0.52412,-0.0371 1.36132,-0.0371 0.83721,0 1.47177,0.0371 1.56641,0.0371 0.0946,0 0.0937,-0.0444 0.0937,-0.11719 v -0.3125 c 0,-0.0582 -0.0211,-0.0586 -0.12305,-0.0586 h -0.51758 c -0.24752,0 -0.44335,-0.13866 -0.44335,-0.29882 a 1.2157683,1.2157683 0 0 1 0,-0.26172 c 0.0364,-0.33489 0.66903,-2.1028 0.76367,-2.38672 h 2.88281 c 0.13104,0.45864 0.62659,2.03692 0.72852,2.48828 0.0728,0.33488 -0.0289,0.45898 -0.3711,0.45898 h -0.32031 c -0.10192,0 -0.10156,0.0229 -0.10156,0.0957 v 0.2461 c 0,0.0728 0.0211,0.14648 0.12304,0.14648 0.27665,0 0.69138,-0.0371 1.73243,-0.0371 1.36136,0 1.61025,0.0371 1.83593,0.0371 0.12376,0 0.12305,-0.0737 0.12305,-0.14648 v -0.26172 c 0,-0.0801 -0.0288,-0.0801 -0.10156,-0.0801 h -0.39258 a 0.93912639,0.93912639 0 0 1 -0.79489,-0.57422 c -0.17472,-0.33488 -0.96715,-2.63669 -1.26563,-3.59765 -0.2184,-0.79353 -1.18785,-3.56567 -1.40625,-4.33008 -0.0291,-0.0728 -0.0941,-0.22656 -0.15234,-0.22656 z m 32.66601,0 c -0.0655,0 -0.11665,0.0502 -0.18945,0.12304 a 3.814746,3.814746 0 0 1 -1.22266,0.61915 c -0.12376,0.0291 -0.125,0.074 -0.125,0.125 a 0.32760223,0.32760223 0 0 0 0.0742,0.15234 c 0.0946,0.0728 0,0.2903 0,0.41406 l -1.21679,3.24805 c -0.37129,1.03377 -1.25906,3.26064 -1.38282,3.48633 -0.22568,0.38584 -0.44352,0.56054 -0.79297,0.56054 h -0.37109 c -0.0728,0 -0.0742,0.0229 -0.0742,0.0957 v 0.23243 c 0,0.0874 -0.1005,0.16015 0.0742,0.16015 0.17472,0 0.495,-0.0371 1.36133,-0.0371 0.86633,0 1.45472,0.0371 1.55664,0.0371 0.10192,0 0.10156,-0.0444 0.10156,-0.11719 v -0.3125 c 0,-0.0582 -0.0284,-0.0586 -0.12304,-0.0586 h -0.52344 c -0.24752,0 -0.44531,-0.13866 -0.44531,-0.29882 a 0.92456629,0.92456629 0 0 1 0,-0.26172 c 0.0364,-0.33489 0.6637,-2.1028 0.76562,-2.38672 h 2.88867 c 0.13832,0.45864 0.63388,2.03692 0.72852,2.48828 0.0728,0.33488 -0.0217,0.45898 -0.3711,0.45898 h -0.32031 c -0.0946,0 -0.0937,0.0229 -0.0937,0.0957 v 0.2461 c 0,0.0728 0.0211,0.14648 0.12305,0.14648 0.26936,0 0.69084,-0.0371 1.72461,-0.0371 1.36137,0 1.61025,0.0371 1.83594,0.0371 0.12376,0 0.12304,-0.0737 0.12304,-0.14648 v -0.26172 c 0,-0.0801 -0.0215,-0.0801 -0.10156,-0.0801 h -0.39258 a 0.94640644,0.94640644 0 0 1 -0.79495,-0.57422 c -0.17472,-0.33488 -0.96128,-2.63669 -1.25977,-3.59765 -0.22568,-0.79353 -1.18642,-3.56567 -1.41211,-4.33008 -0.0218,-0.0728 -0.079,-0.22656 -0.14453,-0.22656 z m 41.35743,0 c -0.0582,0 -0.10884,0.0502 -0.18164,0.12304 a 3.8584263,3.8584263 0 0 1 -1.23047,0.61915 c -0.12376,0.0291 -0.12305,0.074 -0.12305,0.125 a 0.32760223,0.32760223 0 0 0 0.0723,0.15234 c 0.10193,0.0728 0,0.2903 0,0.41406 l -1.1875,3.24805 c -0.37128,1.03377 -1.25905,3.26064 -1.38281,3.48633 a 0.87360595,0.87360595 0 0 1 -0.79297,0.56054 h -0.37109 c -0.0402,0 -0.0583,0.009 -0.0664,0.0273 a 1.3031289,1.3031289 0 0 1 -0.72851,-0.23828 c -0.182,-0.17472 -0.94496,-1.25923 -1.04688,-1.41211 -0.10192,-0.15288 -0.86611,-1.30983 -1.01172,-1.51367 A 1.6744114,1.6744114 0 0 0 225.826,14.95303 v -0.0508 c 1.36137,-0.24024 2.30078,-0.86589 2.30078,-2.42383 a 1.9000929,1.9000929 0 0 0 -0.66992,-1.38476 3.3269827,3.3269827 0 0 0 -2.25,-0.77734 h -2.1836 -1.69726 c -0.0874,0 -0.0859,0.0204 -0.0859,0.0859 v 0.33593 c 0,0.0728 0.0277,0.0723 0.0859,0.0723 h 0.48047 c 0.22568,0 0.40039,0.1969 0.40039,0.61914 v 3.25391 3.56055 c 0,0.33488 -0.19548,0.41406 -0.46485,0.41406 h -0.42187 c -0.0728,0 -0.0742,0.0375 -0.0742,0.0957 v 0.2832 c 0,0.0728 -0.0281,0.10938 0.0957,0.10938 0.12376,0 0.34815,-0.0371 1.63672,-0.0371 1.28857,0 1.60263,0.0371 1.69727,0.0371 0.0946,0 0.13086,-0.022 0.13086,-0.10938 v -0.29882 c 0,-0.0437 -0.0209,-0.0801 -0.0937,-0.0801 h -0.61914 c -0.19656,0 -0.26936,-0.28338 -0.32032,-0.47266 -0.051,-0.18928 -0.0508,-1.58645 -0.0508,-2.31445 l -0.0664,-0.69922 h 0.39258 c 0.52416,0 0.80947,0.29704 1.11523,0.72656 0.19656,0.27664 0.58256,0.84605 0.66992,1.06445 0.0874,0.2184 0.59605,1.10564 0.81445,1.45508 a 3.3342627,3.3342627 0 0 0 0.54688,0.72852 c 0.26936,-0.0364 0.74235,-0.0371 1.0918,-0.0371 0.71626,0 0.96955,0.0278 1.09961,0.0332 0.009,5.5e-4 0.0105,0.004 0.0215,0.004 0.006,0 0.0388,-0.002 0.0449,-0.002 0.004,8e-5 0.0376,0.002 0.041,0.002 0.004,0 0.004,-0.002 0.008,-0.002 0.18313,-0.004 0.4609,-0.0352 1.26758,-0.0352 0.86632,0 1.45472,0.0371 1.55664,0.0371 0.10192,0 0.10351,-0.0444 0.10351,-0.11719 v -0.3125 c 0,-0.0582 -0.0231,-0.0586 -0.125,-0.0586 h -0.51562 c -0.24752,0 -0.44531,-0.13867 -0.44531,-0.29883 a 1.2157683,1.2157683 0 0 1 0,-0.26172 c 0,-0.33488 0.63387,-2.1028 0.72851,-2.38672 h 2.89649 c 0.13104,0.45865 0.62659,2.03692 0.72851,2.48828 0.0728,0.33489 -0.0289,0.45899 -0.37109,0.45899 h -0.32813 c -0.0946,0 -0.0937,0.0229 -0.0937,0.0957 v 0.24609 c 0,0.0728 0.0211,0.14649 0.12305,0.14649 0.27664,0 0.69138,-0.0371 1.73242,-0.0371 1.36137,0 1.60973,0.0371 1.82813,0.0371 0.12376,0 0.12304,-0.0737 0.12304,-0.14649 v -0.26172 c 0,-0.0801 -0.0209,-0.0801 -0.0937,-0.0801 h -0.40039 a 0.92456629,0.92456629 0 0 1 -0.78748,-0.57415 c -0.17472,-0.33488 -0.96714,-2.63669 -1.26562,-3.59765 -0.2184,-0.79353 -1.18643,-3.56567 -1.41211,-4.33008 -0.0218,-0.0728 -0.0882,-0.22656 -0.14648,-0.22656 z m -18.45118,0.25781 a 4.258829,4.258829 0 0 0 -3.05468,1.29297 4.7975527,4.7975527 0 0 0 -1.26563,3.3125 4.702912,4.702912 0 0 0 1.33985,3.3418 4.3680297,4.3680297 0 0 0 3.23828,1.16406 4.4335502,4.4335502 0 0 0 3.6914,-2.08203 0.10192069,0.10192069 0 0 0 0,-0.12305 l -0.21094,-0.19727 c -0.0364,-0.0364 -0.081,5.3e-4 -0.14648,0.0879 a 3.6400248,3.6400248 0 0 1 -2.95508,1.45508 2.6863383,2.6863383 0 0 1 -2.13281,-0.96679 5.0305143,5.0305143 0 0 1 -1.16406,-3.19727 c 0,-1.77633 0.81475,-3.55859 2.79492,-3.55859 a 2.9120198,2.9120198 0 0 1 2.18359,0.91601 4.2806691,4.2806691 0 0 1 0.96094,1.60938 c 0.0437,0.12376 0.0804,0.12304 0.13867,0.12304 l 0.24024,-0.0801 c 0.0437,-0.007 0.043,-0.043 0.043,-0.12304 -0.0437,-0.38585 -0.29688,-2.37375 -0.29688,-2.57032 0,-0.19656 -0.0151,-0.19531 -0.16797,-0.19531 -0.15288,0 -0.19726,-5.3e-4 -0.19726,0.0723 l -0.10157,0.32031 c -0.0291,0.10192 -0.0733,0.10192 -0.24804,0 a 5.3726766,5.3726766 0 0 0 -2.4961,-0.59765 4.258829,4.258829 0 0 0 -0.19336,-0.004 z m 29.87305,0.0762 a 3.7346654,3.7346654 0 0 1 -0.47266,0.0527 h -4.23046 -2.00196 c -0.051,0 -0.10156,0.0213 -0.10156,0.0723 v 0.35547 c 0,0.0655 0.0506,0.0664 0.10156,0.0664 h 0.61914 c 0.32033,0 0.4961,0.20347 0.4961,0.3418 v 2.43945 0.83594 c 0,2.13305 -0.0225,3.72833 -0.0371,3.93945 -0.0146,0.21112 -0.10972,0.26172 -0.40821,0.26172 h -0.49414 c -0.0728,0 -0.0723,0.0213 -0.0723,0.0723 v 0.33594 c 0,0.0801 0.0213,0.0801 0.0723,0.0801 0.17472,0 0.53814,-0.0371 1.75391,-0.0371 1.21577,0 1.73934,0.0371 1.83398,0.0371 0.0947,0 0.0957,-0.0229 0.0957,-0.0957 v -0.3125 c 0,-0.0801 -0.0229,-0.0801 -0.0957,-0.0801 h -0.66796 c -0.29849,0 -0.39454,-0.051 -0.39454,-0.4004 V 15.1504 a 9.9081475,9.9081475 0 0 1 1.41993,0.0723 0.93912639,0.93912639 0 0 1 0.61914,0.50977 2.9993804,2.9993804 0 0 1 0.18945,0.58203 c 0.007,0.0946 0.0428,0.0937 0.0937,0.0937 l 0.27734,-0.0508 c 0.0728,-0.007 0.0723,-0.0357 0.0723,-0.12305 -0.0291,-0.24752 -0.0723,-0.83717 -0.0723,-1.28125 v -1.41211 c 0,-0.0728 -0.0213,-0.0742 -0.0723,-0.0742 h -0.24805 c -0.051,0 -0.10156,0.0526 -0.10156,0.10352 a 2.489777,2.489777 0 0 1 -0.21875,0.63281 0.93184634,0.93184634 0 0 1 -0.65625,0.48047 10.23575,10.23575 0 0 1 -1.32422,0.0586 l 0.043,-3.97461 c 0.46592,0 2.07616,0.0497 2.39648,0.11523 a 1.5069703,1.5069703 0 0 1 0.84375,0.56836 8.080855,8.080855 0 0 1 0.88868,1.13477 c 0.0801,0.10192 0.10138,0.10351 0.15234,0.10351 l 0.23242,-0.10351 c 0.0364,-0.007 0.0371,-0.0501 0.0371,-0.0937 -0.051,-0.15288 -0.49414,-1.95082 -0.49414,-2.05274 0,-0.10192 -0.0233,-0.17578 -0.0742,-0.17578 z m -143.96094,0.0508 a 0.0873606,0.0873606 0 0 0 -0.008,0.002 h -0.49609 -3.937505 -0.34375 c -1.00465,0.051 -1.46306,0 -1.73242,0 -0.0728,0 -0.0723,0.0204 -0.0723,0.0859 v 0.32031 c 0,0.0874 0.0213,0.0879 0.0723,0.0879 h 0.44531 c 0.37128,0 0.49396,0.0948 0.54492,0.42969 0.051,0.17472 0.0508,1.71073 0.0508,2.72266 v 4.15625 c 0,0.45864 -0.0513,0.53906 -0.61914,0.53906 h -0.42187 c -0.12376,0 -0.12305,0.0229 -0.12305,0.0957 v 0.29688 c 0,0.0946 0.0288,0.0957 0.10156,0.0957 h 0.53125 1.04883 4.121095 1.10547 a 0.26208178,0.26208178 0 0 0 0.26953,-0.18165 l 0.59766,-1.85742 a 0.09464064,0.09464064 0 0 0 0,-0.12304 l -0.19727,-0.125 c -0.051,-0.0218 -0.0877,-0.0128 -0.13867,0.0527 a 16.401952,16.401952 0 0 1 -1.15039,1.30859 2.1840149,2.1840149 0 0 1 -1.01172,0.42383 c -0.24752,0.051 -0.815335,0.0508 -1.041015,0.0508 a 3.7856258,3.7856258 0 0 1 -0.96094,-0.10156 c -0.27664,-0.0728 -0.49414,-0.32083 -0.49414,-0.96875 0,-0.21841 -0.0449,-1.43375 -0.0449,-2.10352 l 0.008,-0.80078 a 14.312577,14.312577 0 0 1 1.45703,0.0801 0.72800496,0.72800496 0 0 1 0.617195,0.44336 4.7902726,4.7902726 0 0 1 0.19726,0.61914 c 0.0291,0.0874 0.0506,0.0879 0.10157,0.0879 l 0.26953,-0.0527 c 0.10192,-0.0146 0.10156,-0.0204 0.10156,-0.0859 -0.0291,-0.26936 -0.0723,-0.86629 -0.0723,-1.36133 v -1.33984 c 0.0146,-0.0946 -0.0213,-0.0957 -0.0723,-0.0957 h -0.32031 a 0.0873606,0.0873606 0 0 0 -0.10157,0.0957 1.9728934,1.9728934 0 0 1 -0.19726,0.72851 0.68432466,0.68432466 0 0 1 -0.568365,0.44336 12.245043,12.245043 0 0 1 -1.41211,0.0644 v -3.57422 l 1.886725,0.0508 a 2.0384139,2.0384139 0 0 1 0.9375,0.32032 11.881041,11.881041 0 0 1 1.36133,1.38476 c 0.0364,0.0655 0.10937,0.0644 0.10937,0.0644 l 0.22656,-0.10156 c 0.0364,-0.0218 0.0861,-0.0149 0.0352,-0.13867 -0.051,-0.12376 -0.52273,-1.80469 -0.56641,-1.96485 a 0.0873606,0.0873606 0 0 0 -0.0937,-0.0742 z m 4.66797,0 a 0.11648079,0.11648079 0 0 0 -0.11133,0.125 v 0.26172 c 0,0.0582 0.0211,0.10937 0.12305,0.10937 h 0.53906 c 0.40041,0 0.47266,0.17417 0.47266,0.79297 v 2.08985 1.58007 2.80274 c 0,0.28392 -0.0511,0.58203 -0.34961,0.58203 h -0.64063 c -0.12376,0 -0.12304,0.0229 -0.12304,0.0957 v 0.2832 c 0,0.0655 0.0211,0.10938 0.12304,0.10938 0.24753,0 0.61822,-0.0371 1.83399,-0.0371 1.01193,0 1.43589,0.0371 1.6543,0.0371 0.12376,0 0.12304,-0.0444 0.12304,-0.11719 v -0.29101 c 0,-0.0801 -0.0211,-0.0801 -0.12304,-0.0801 h -0.44532 c -0.26936,0 -0.42187,-0.1234 -0.42187,-0.42188 -0.0437,-0.85905 -0.043,-2.2942 -0.043,-2.73828 v -0.53125 c 0,-0.1092 0.035,-0.16016 0.16602,-0.16016 h 4.04101 c 0.16744,0 0.26953,0.0373 0.26953,0.14649 v 0.34961 c 0,0.2184 -0.0508,2.19795 -0.0508,2.79492 -0.0146,0.33488 -0.0218,0.56055 -0.32031,0.56055 h -0.66992 c -0.0946,0 -0.0937,0.0375 -0.0937,0.0957 v 0.2832 c 0,0.051 0.0209,0.10937 0.0937,0.10937 0.34944,0 0.84531,-0.0371 1.9082,-0.0371 1.06289,0 1.55788,0.0371 1.68164,0.0371 0.12376,0 0.12305,-0.0444 0.12305,-0.11718 v -0.29102 c 0,-0.0437 -0.0215,-0.0801 -0.10157,-0.0801 h -0.49609 c -0.364,0 -0.48633,-0.17506 -0.48633,-0.61914 v -3.01367 -1.33203 -2.25 c 0,-0.43681 0.0213,-0.63282 0.39258,-0.63282 h 0.44336 c 0.1456,0 0.14648,-0.0503 0.14648,-0.12304 v -0.26367 c 10e-6,-0.0582 0.0282,-0.10743 -0.14648,-0.10743 h -1.63086 -1.76172 c -0.0946,0 -0.0937,0.0355 -0.0937,0.0937 v 0.29102 c 0,0.0728 0.006,0.10937 0.0937,0.10937 h 0.57617 c 0.26937,0 0.32618,0.21874 0.32618,0.61914 0.0146,0.13105 0.0664,1.86309 0.0664,2.31446 v 0.37109 c 0,0.13104 -0.0515,0.16797 -0.24804,0.16797 h -4.08399 c -0.1092,0 -0.14453,-0.0442 -0.14453,-0.16797 v -0.49414 c 0,-0.3276 0.0566,-1.95809 0.0566,-2.13281 0.0146,-0.48048 0.0657,-0.67774 0.50977,-0.67774 h 0.44531 c 0.12376,0 0.12305,-0.0503 0.12305,-0.12304 v -0.26367 c 0,-0.0582 -0.0211,-0.10743 -0.12305,-0.10743 h -1.7832 -1.82813 a 0.11648079,0.11648079 0 0 0 -0.0117,-0.002 z m 60.71875,0 a 0.35672243,0.35672243 0 0 0 -0.0351,0.002 h -0.34961 -0.54493 -1.0996 -0.38672 c -0.0728,0 -0.0723,0.0213 -0.0723,0.0723 v 0.33398 c 0,0.051 0.0213,0.0879 0.0723,0.0879 h 0.40039 c 0.53872,10e-6 0.96093,0.58255 0.96093,1.31055 v 1.57227 c 0,1.98017 -0.0879,3.71324 -0.0879,3.93164 -0.0582,0.75712 -0.23241,1.0332 -0.55273,1.0332 h -0.42188 a 0.0728005,0.0728005 0 0 0 -0.0723,0.0723 v 0.30664 c 0,0.1092 -0.0515,0.10938 0.0723,0.10938 0.12377,0 0.96874,-0.0371 1.28907,-0.0371 0.46592,0 1.23011,0.0371 1.33203,0.0371 0.10192,0 0.10156,-0.0229 0.10156,-0.0957 V 18.7677 c 0,-0.0655 3.6e-4,-0.10937 -0.10156,-0.10937 h -0.32031 c -0.44409,0 -0.61915,-0.29917 -0.61915,-0.91797 -0.0218,-0.38584 -0.12304,-2.11677 -0.12304,-4.2207 v -1.49414 h 0.0937 c 0.12376,0.17472 2.16299,2.62179 2.30859,2.81836 0.1456,0.19656 1.11414,1.36094 1.98047,2.42382 0.80081,0.91729 1.4327,1.68874 1.52734,1.8125 a 0.64064436,0.64064436 0 0 0 0.42188,0.19727 c 0.1456,0 0.14648,-0.17489 0.14648,-0.34961 v -3.2832 c 0,-1.26673 0.12394,-3.3352 0.18946,-4.17969 0.0364,-0.45864 0.16068,-0.6543 0.4082,-0.6543 h 0.34961 c 0.0728,0 0.0723,-0.0503 0.0723,-0.12304 v -0.28516 c 0,-0.0364 0.0279,-0.0859 -0.125,-0.0859 h -1.18554 -1.39063 c -0.0946,0 -0.0937,0.021 -0.0937,0.0937 v 0.29102 c 0,0.0582 -5.3e-4,0.10937 0.0723,0.10937 h 0.39258 a 0.66976456,0.66976456 0 0 1 0.65625,0.4668 c 0.0655,0.21112 0.13672,1.42665 0.13672,1.89258 v 2.32812 1.28906 h -0.043 c -0.20384,-0.24752 -2.13334,-2.64914 -2.30078,-2.8457 -0.24753,-0.34944 -2.67898,-3.39382 -2.80274,-3.51758 a 0.35672243,0.35672243 0 0 0 -0.25586,-0.10937 z m 34.13281,0 a 0.09464064,0.09464064 0 0 0 -0.01,0.002 h -1.75391 -2.00976 c -0.0728,0 -0.0723,0.0204 -0.0723,0.0859 v 0.32031 c 0,0.0874 0.0215,0.0879 0.10156,0.0879 h 0.64063 c 0.34944,0 0.47336,0.1234 0.50976,0.42188 0.0364,0.16016 0.0352,2.38902 0.0352,2.6875 v 0.85742 c 0,0.66977 -0.0508,3.34286 -0.0508,3.51758 -0.051,0.364 -0.32084,0.36328 -0.56836,0.36328 h -0.49414 c -0.10192,0 -0.10156,0.0213 -0.10156,0.0723 v 0.33594 c 0,0.0801 -0.0222,0.0801 0.10156,0.0801 0.12376,0 0.75067,-0.0371 1.9082,-0.0371 1.15753,0 1.73189,0.0371 1.80469,0.0371 0.0728,0 0.12305,-0.0229 0.12305,-0.0957 v -0.3125 c 0,-0.0801 -0.0506,-0.0801 -0.10157,-0.0801 h -0.51562 c -0.29848,0 -0.49609,-0.0508 -0.49609,-0.45117 v -3.10157 l 0.008,-0.96875 v -2.99218 c 0,-0.24025 0.19548,-0.33399 0.46484,-0.33399 h 0.4668 a 0.09464064,0.09464064 0 0 0 0.10156,-0.10156 v -0.28516 a 0.09464064,0.09464064 0 0 0 -0.0918,-0.10937 z m -116.671875,0.002 c -0.0655,0 -0.11718,0.0213 -0.11718,0.0723 v 0.33398 a 0.09464064,0.09464064 0 0 0 0.10156,0.0879 h 0.66992 c 0.24752,0 0.42152,0.15252 0.44336,0.3418 0.0218,0.18928 0.0742,1.94335 0.0742,2.26367 v 0.94727 c 0,0.92457 -0.03,3.74982 -0.0664,3.96094 -0.0364,0.21112 -0.16068,0.3125 -0.4082,0.3125 h -0.72657 c -0.0946,0 -0.0957,0.0213 -0.0957,0.0723 v 0.30664 c 0,0.1092 0.0213,0.10937 0.0723,0.10937 0.17473,0 0.67114,-0.0371 1.75586,-0.0371 0.61881,0 1.88564,0.0371 2.35157,0.0371 0.84448,0 2.77251,-0.008 3.98828,-1.31836 a 4.40443,4.40443 0 0 0 1.20898,-3.24609 3.8802664,3.8802664 0 0 0 -1.39844,-3.11719 c -1.13568,-0.96825 -2.47491,-1.12695 -4.13476,-1.12695 h -1.85547 z m 40.484375,0 c -0.0728,0 -0.0742,0.021 -0.0742,0.0937 v 0.29102 c 0,0.0728 0.0232,0.10937 0.0742,0.10937 h 0.26758 a 0.53144362,0.53144362 0 0 1 0.53321,0.39258 c 0.13104,0.364 0.67577,1.94386 0.99609,2.83203 0.42952,1.15753 1.46448,3.99074 1.88672,5.03906 0.0582,0.15288 0.12393,0.28321 0.26953,0.28321 a 0.27664188,0.27664188 0 0 0 0.24609,-0.16016 c 0.12376,-0.2548 1.6099,-3.87392 1.85742,-4.41992 0.34945,-0.81537 1.09232,-2.74324 1.5,-3.39844 a 1.0410471,1.0410471 0 0 1 0.90235,-0.56836 h 0.29883 c 0.0946,0 0.0937,-0.036 0.0937,-0.10156 v -0.30664 c 0,-0.0874 8.9e-4,-0.0859 -0.0937,-0.0859 h -1.45703 -1.45508 c -0.0946,0 -0.0957,0.021 -0.0957,0.0937 l -0.0137,0.3125 a 0.10192069,0.10192069 0 0 0 0.0859,0.10937 h 0.34375 c 0.34216,0 0.46484,0.1962 0.46484,0.3418 a 19.656134,19.656134 0 0 1 -0.96093,2.96289 c -0.12376,0.37128 -0.91637,2.38918 -1.21485,3.11719 -0.19656,-0.66249 -0.86629,-2.62055 -1.04101,-3.09375 -0.24752,-0.71345 -0.72124,-2.17701 -0.8086,-2.6211 a 1.9656134,1.9656134 0 0 1 -0.0371,-0.42187 c 0,-0.182 0.20507,-0.30664 0.52539,-0.30664 h 0.58985 c 0.10192,0 0.10156,-0.0357 0.10156,-0.12305 v -0.27734 c 0,-0.0946 -0.0231,-0.0937 -0.125,-0.0937 h -1.83398 z m 9.1211,0 c -0.0728,0 -0.0723,0.0204 -0.0723,0.0859 v 0.32031 c 0,0.0874 0.0209,0.0879 0.0937,0.0879 h 0.64852 c 0.34216,0 0.50195,0.1234 0.50195,0.42188 0.0364,0.16016 0.0371,2.38902 0.0371,2.6875 v 0.85742 c 0,0.66977 -0.0449,3.34286 -0.0449,3.51758 -0.051,0.364 -0.3267,0.36328 -0.57422,0.36328 h -0.49609 c -0.0946,0 -0.0937,0.0213 -0.0937,0.0723 v 0.33594 c 0,0.0801 -0.03,0.0801 0.0937,0.0801 0.12376,0 0.74339,-0.0371 1.9082,-0.0371 1.16481,0 1.72461,0.0371 1.80469,0.0371 0.0801,0 0.125,-0.0229 0.125,-0.0957 v -0.3125 c 0,-0.0801 -0.0447,-0.0801 -0.0957,-0.0801 h -0.52344 c -0.2912,0 -0.4961,-0.0508 -0.4961,-0.45117 v -3.10157 -0.96875 -2.99218 c 0,-0.24025 0.20525,-0.33399 0.47461,-0.33399 h 0.47266 a 0.09464064,0.09464064 0 0 0 0.0937,-0.10156 v -0.28516 c 0,-0.0582 0.081,-0.10742 -0.0937,-0.10742 h -1.76172 z m 5.23437,0 c -0.10192,0 -0.10156,0.021 -0.10156,0.0937 v 0.29102 a 0.10920074,0.10920074 0 0 0 0.10156,0.10937 h 0.51758 c 0.32032,0 0.40039,0.12304 0.40039,0.44336 0.0437,0.21112 0.043,1.52288 0.043,2.31641 v 0.6914 c 0,0.74257 -0.043,3.90234 -0.043,4.0625 0,0.16016 -0.0813,0.33399 -0.52539,0.33399 h -0.49414 c -0.0728,0 -0.0742,0.0229 -0.0742,0.0957 v 0.2832 c 0,0.1092 -0.0421,0.10938 0.10352,0.10938 0.1456,0 0.58927,-0.0371 1.70312,-0.0371 1.26673,0 4.82616,0.0371 5.14649,0.0371 0.0801,-0.32761 0.61914,-2.38814 0.61914,-2.46094 v -0.12305 l -0.21875,-0.0508 c -0.0728,-0.0218 -0.0936,-1.8e-4 -0.14453,0.0508 -0.20385,0.46592 -0.96856,1.95081 -1.66016,2.05274 a 19.947336,19.947336 0 0 1 -2.07617,0.0644 h -0.72656 c -0.0437,-0.51689 -0.0449,-3.20934 -0.0449,-3.42774 v -1.07031 c 0,-0.88817 0.0449,-2.73739 0.0449,-2.91211 0,-0.33488 0.0506,-0.45899 0.42187,-0.45899 h 0.66992 c 0.12376,0 0.12305,-0.0506 0.12305,-0.10156 v -0.28515 c 0,-0.0582 -0.0211,-0.10743 -0.12305,-0.10743 h -1.95898 z m 8.04493,0 c -0.10193,0 -0.10157,0.021 -0.10157,0.0937 v 0.29102 a 0.10920074,0.10920074 0 0 0 0.10157,0.10937 h 0.51562 c 0.32032,0 0.40039,0.12304 0.40039,0.44336 0.0437,0.21112 0.0449,1.52288 0.0449,2.31641 v 0.6914 c 0,0.74257 -0.0449,3.90234 -0.0449,4.0625 0,0.16016 -0.0793,0.33399 -0.52344,0.33399 h -0.49414 c -0.0728,0 -0.0742,0.0229 -0.0742,0.0957 v 0.2832 c 0,0.1092 -0.044,0.10938 0.10157,0.10938 0.1456,0 0.59123,-0.0371 1.70507,-0.0371 1.26673,0 4.82617,0.0371 5.14649,0.0371 0.0801,-0.32761 0.61914,-2.38814 0.61914,-2.46094 v -0.12305 l -0.21875,-0.0508 c -0.0728,-0.0218 -0.0955,-1.8e-4 -0.14649,0.0508 -0.20384,0.46592 -0.93019,1.95081 -1.6582,2.05274 a 19.947336,19.947336 0 0 1 -2.07617,0.0644 h -0.72852 c -0.0437,-0.51689 -0.043,-3.20934 -0.043,-3.42774 v -1.07031 c 0,-0.88817 0.043,-2.73739 0.043,-2.91211 0,-0.33488 0.0525,-0.45899 0.42383,-0.45899 h 0.66992 c 0.12377,0 0.12305,-0.0506 0.12305,-0.10156 v -0.28515 c 0,-0.0582 -0.0211,-0.10743 -0.12305,-0.10743 h -1.95898 z m 27.58398,0 c -0.0655,0 -0.11719,0.0213 -0.11719,0.0723 v 0.33398 a 0.09464064,0.09464064 0 0 0 0.10156,0.0879 h 0.66993 c 0.24752,0 0.42347,0.15252 0.44531,0.3418 0.0218,0.18928 0.0723,1.94335 0.0723,2.26367 l 0.0137,0.94727 c 0,0.93913 -0.0495,3.7713 -0.0859,3.98242 -0.0364,0.21112 -0.16068,0.3125 -0.4082,0.3125 h -0.72852 c -0.10192,0 -0.10156,0.0213 -0.10156,0.0723 v 0.30664 c 0,0.1092 0.0213,0.10938 0.0723,0.10938 0.17472,0 0.66971,-0.0371 1.76172,-0.0371 0.61881,0 1.87836,0.0371 2.35156,0.0371 0.83721,0 2.76666,-0.008 3.98243,-1.31836 a 4.40443,4.40443 0 0 0 1.20898,-3.2461 3.8802664,3.8802664 0 0 0 -1.38281,-3.13867 c -1.13569,-0.96824 -2.47687,-1.12695 -4.13672,-1.12695 h -1.85547 z m 27.75195,0 c -0.0874,0 -0.0879,0.0204 -0.0879,0.0859 v 0.33594 c 0,0.0728 0.0297,0.0723 0.0879,0.0723 h 0.48047 c 0.22568,0 0.40039,0.1969 0.40039,0.61914 v 3.25391 3.56054 c 0,0.33489 -0.19743,0.41407 -0.46679,0.41407 h -0.42188 c -0.0728,0 -0.0723,0.0375 -0.0723,0.0957 v 0.2832 c 0,0.0728 -0.03,0.10937 0.0937,0.10937 0.12377,0 0.35011,-0.0371 1.63868,-0.0371 1.28857,0 1.60067,0.0371 1.69531,0.0371 0.0946,0 0.13086,-0.022 0.13086,-0.10937 v -0.29883 c 0,-0.0437 -0.0209,-0.0801 -0.0937,-0.0801 h -0.61914 c -0.19656,0 -0.26935,-0.28337 -0.32032,-0.47266 -0.051,-0.18928 -0.0508,-1.58644 -0.0508,-2.31445 l -0.0664,-0.69922 h 0.39453 c 0.52416,0 0.80752,0.29704 1.11328,0.72656 0.19656,0.27665 0.58256,0.84606 0.66992,1.06446 0.0874,0.2184 0.59605,1.10563 0.81445,1.45508 a 3.3342627,3.3342627 0 0 0 0.54693,0.72847 c 0.26936,-0.0364 0.74235,-0.0371 1.0918,-0.0371 0.78624,0 1.10706,0.0371 1.20898,0.0371 0.10192,0 0.10156,-0.0371 0.10156,-0.11718 v -0.26172 c 0,-0.051 -0.0288,-0.0879 -0.10156,-0.0879 a 1.3031289,1.3031289 0 0 1 -0.88086,-0.23242 c -0.182,-0.17472 -0.94691,-1.25923 -1.04883,-1.41211 -0.10192,-0.15288 -0.86611,-1.30983 -1.01171,-1.51367 a 1.6744114,1.6744114 0 0 0 -0.72852,-0.56836 v -0.0508 c 1.36137,-0.24024 2.30078,-0.8659 2.30078,-2.42383 a 1.9000929,1.9000929 0 0 0 -0.66992,-1.38477 3.3269827,3.3269827 0 0 0 -2.25,-0.77734 h -2.1836 z M 88.491965,10.73828 a 1.6307311,1.6307311 0 0 1 0.16211,0.006 3.967627,3.967627 0 0 1 2.77539,1.16602 4.3680297,4.3680297 0 0 1 0.98828,2.70117 4.6446716,4.6446716 0 0 1 -0.89453,2.81641 3.2469021,3.2469021 0 0 1 -2.57031,1.25195 1.4050496,1.4050496 0 0 1 -1.0918,-0.33399 1.0774473,1.0774473 0 0 1 -0.21875,-0.6914 V 14.63295 13.74428 11.4142 c 0,-0.24752 0.044,-0.443 0.21875,-0.54492 a 1.6307311,1.6307311 0 0 1 0.63086,-0.13086 z m 90.490235,0 a 1.6452912,1.6452912 0 0 1 0.16406,0.006 3.9530669,3.9530669 0 0 1 2.77344,1.16602 4.3680297,4.3680297 0 0 1 0.99023,2.70117 4.6446716,4.6446716 0 0 1 -0.91797,2.81641 3.232342,3.232342 0 0 1 -2.57031,1.25195 1.4050496,1.4050496 0 0 1 -1.0918,-0.33399 1.1284077,1.1284077 0 0 1 -0.21679,-0.6914 v -3.02149 l 0.0215,-0.88867 V 11.4142 a 0.58240397,0.58240397 0 0 1 0.21875,-0.54492 1.6452912,1.6452912 0 0 1 0.62891,-0.13086 z m 27.07226,0.0176 a 0.92456629,0.92456629 0 0 1 0.0937,0.004 2.4024164,2.4024164 0 0 1 1.63672,0.53125 1.9583333,1.9583333 0 0 1 0.53907,1.38281 2.1840149,2.1840149 0 0 1 -2.32227,2.13282 3.8948265,3.8948265 0 0 1 -0.47266,-0.0508 l 0.0293,-3.5586 a 0.42224287,0.42224287 0 0 1 0.14453,-0.36523 0.92456629,0.92456629 0 0 1 0.35156,-0.0762 z m 18.19336,0 a 0.92456629,0.92456629 0 0 1 0.0918,0.004 2.4024164,2.4024164 0 0 1 1.63867,0.53125 1.9583333,1.9583333 0 0 1 0.53906,1.38281 2.1840149,2.1840149 0 0 1 -2.32226,2.13282 3.8948265,3.8948265 0 0 1 -0.47266,-0.0508 l 0.0293,-3.5586 a 0.42224287,0.42224287 0 0 1 0.14453,-0.36523 0.92456629,0.92456629 0 0 1 0.35156,-0.0762 z m -103.05078,0.8125 c 0.051,0 0.0502,-0.0307 0.12305,0.2168 0.0728,0.24752 0.91725,3.07296 1.04102,3.42969 h -2.57618 c 0.0874,-0.28393 1.21556,-3.36985 1.25196,-3.48633 0.0364,-0.11648 0.10919,-0.16016 0.16015,-0.16016 z m 38.45313,0 c 0.051,0 0.0502,-0.0307 0.12304,0.2168 0.0728,0.24752 0.91726,3.07296 1.04102,3.42969 h -2.57617 c 0.0874,-0.28393 1.21555,-3.36985 1.25195,-3.48633 0.0364,-0.11648 0.1092,-0.16016 0.16016,-0.16016 z m 32.65039,0 c 0.0437,0 0.0522,-0.0307 0.125,0.2168 0.0728,0.24752 0.90944,3.07296 1.0332,3.42969 h -2.57031 c 0.0874,-0.28393 1.20046,-3.36985 1.24414,-3.48633 0.0437,-0.11648 0.12429,-0.16016 0.16797,-0.16016 z m 41.35742,0 c 0.051,0 0.0522,-0.0307 0.125,0.2168 0.0728,0.24752 0.91725,3.07296 1.04102,3.42969 h -2.57813 c 0.0874,-0.28393 1.21555,-3.36985 1.25195,-3.48633 0.0364,-0.11648 0.1092,-0.16016 0.16016,-0.16016 z" style="fill:#221e1f;fill-opacity:1;stroke-width:0.72800493"/>
  <path id="path5978" d="m 196.70485,25.12305 c -0.051,0 -0.14453,0.044 -0.14453,0.21875 l -0.59765,2.27929 a 0.09464064,0.09464064 0 0 0 0.0508,0.12305 l 0.24805,0.0879 c 0.0582,0.0218 0.095,-0.0297 0.13867,-0.0879 0.23296,-0.42224 0.6992,-1.23739 1.09961,-1.41211 a 6.7777261,6.7777261 0 0 1 1.80468,-0.17578 h 0.34961 l 0.0371,3.09375 c 0,0.2548 -7.1e-4,4.04154 -0.0371,4.36914 a 0.37856258,0.37856258 0 0 1 -0.41601,0.33399 h -0.72656 c -0.051,0 -0.0879,0.0229 -0.0879,0.0957 v 0.2832 c 0,0.1092 -0.081,0.10937 0.0937,0.10937 h 1.95899 1.85742 c 0.12376,0 0.12305,-0.0444 0.12305,-0.11718 V 34.0625 c 0,-0.0655 -0.0286,-0.10938 -0.0723,-0.10938 h -0.72851 c -0.29849,0 -0.42188,-0.24695 -0.42188,-1.19336 v -6.60351 h 0.34961 a 5.9914808,5.9914808 0 0 1 1.90625,0.22656 5.0232342,5.0232342 0 0 1 0.97656,1.38281 c 0.0364,0.10192 0.0584,0.10156 0.10938,0.10156 l 0.24609,-0.0859 c 0.051,-0.0146 0.0508,-0.0366 0.0508,-0.10937 -0.10192,-0.59696 -0.34925,-2.19868 -0.37109,-2.35156 -0.0218,-0.15288 -0.0503,-0.19727 -0.12305,-0.19727 -0.0728,0 -0.12464,0.043 -0.22656,0.12305 a 2.3660161,2.3660161 0 0 1 -0.88672,0.32031 c -0.56784,0.0218 -1.09175,0.0742 -2.45312,0.0742 h -0.66407 c -1.21576,0 -1.73257,-0.0742 -2.40234,-0.0742 a 1.1211276,1.1211276 0 0 1 -0.84375,-0.32031 c -0.0728,-0.0801 -0.1463,-0.12305 -0.19727,-0.12305 z m -76.56445,0.0937 c -0.0655,0 -0.10937,0.0522 -0.18945,0.125 a 3.7346654,3.7346654 0 0 1 -1.22266,0.61914 c -0.12376,0.0291 -0.12304,0.0721 -0.12304,0.12304 a 0.32760223,0.32760223 0 0 0 0.0723,0.15235 c 0.10192,0.0728 0,0.29225 0,0.41601 l -1.21484,3.2461 c -0.37129,1.03376 -1.26101,3.2626 -1.38477,3.48828 -0.22568,0.38584 -0.44352,0.56055 -0.79297,0.56055 h -0.37109 c -0.0728,0 -0.0723,0.0209 -0.0723,0.0937 v 0.23242 c 0,0.0874 -0.10245,0.16015 0.0723,0.16015 h 1.36133 1.55859 c 0.10192,0 0.10156,-0.0424 0.10156,-0.11523 v -0.31445 c 0,-0.0582 -0.0211,-0.0566 -0.12304,-0.0566 h -0.51758 c -0.24752,0 -0.45117,-0.13867 -0.45117,-0.29883 a 0.92456629,0.92456629 0 0 1 0,-0.26172 c 0.0364,-0.33488 0.66903,-2.10475 0.76367,-2.38867 h 2.89844 c 0.13104,0.45864 0.62464,2.03887 0.72656,2.49023 0.0728,0.33488 -0.0289,0.45899 -0.37109,0.45899 h -0.32618 c -0.0946,0 -0.0957,0.0209 -0.0957,0.0937 v 0.24804 c 0,0.0728 0.0231,0.14453 0.125,0.14453 h 1.73242 1.82617 c 0.12376,0 0.125,-0.0717 0.125,-0.14453 v -0.26172 c 0,-0.0801 -0.0229,-0.0801 -0.0957,-0.0801 h -0.40039 a 0.92456629,0.92456629 0 0 1 -0.78516,-0.57617 c -0.17472,-0.33488 -0.96909,-2.63473 -1.26757,-3.5957 -0.21841,-0.79353 -1.18643,-3.60403 -1.41211,-4.33203 -0.0218,-0.0728 -0.081,-0.22656 -0.14649,-0.22656 z m 19.19141,0 c -0.0582,0 -0.10884,0.0522 -0.18164,0.125 a 3.8948265,3.8948265 0 0 1 -1.22461,0.61914 c -0.12376,0.0291 -0.12305,0.0721 -0.12305,0.12304 a 0.32760223,0.32760223 0 0 0 0.0723,0.15235 c 0.10192,0.0728 0,0.29225 0,0.41601 l -1.20703,3.2461 c -0.37129,1.03376 -1.26687,3.2626 -1.39063,3.48828 -0.2184,0.38584 -0.44495,0.56055 -0.78711,0.56055 h -0.37109 c -0.0801,0 -0.0801,0.0209 -0.0801,0.0937 v 0.23242 c 0,0.0874 -0.0874,0.16015 0.0801,0.16015 h 1.36133 1.55859 c 0.0946,0 0.0937,-0.0424 0.0937,-0.11523 v -0.31445 c 0,-0.0582 -0.0211,-0.0566 -0.12305,-0.0566 h -0.51758 c -0.24752,0 -0.44335,-0.13867 -0.44335,-0.29883 a 1.2157683,1.2157683 0 0 1 0,-0.26172 c 0.0437,-0.33488 0.66956,-2.10475 0.77148,-2.38867 h 2.875 c 0.13104,0.45864 0.62659,2.03887 0.72852,2.49023 0.0728,0.33488 -0.0217,0.45899 -0.3711,0.45899 h -0.32031 c -0.10192,0 -0.10156,0.0209 -0.10156,0.0937 v 0.24804 c 0,0.0728 0.0284,0.14453 0.12304,0.14453 h 1.73243 1.83398 c 0.12376,0 0.125,-0.0717 0.125,-0.14453 v -0.26172 c 0,-0.0801 -0.0288,-0.0801 -0.10156,-0.0801 h -0.39453 a 0.94640644,0.94640644 0 0 1 -0.79297,-0.57617 c -0.17472,-0.33488 -0.96857,-2.63473 -1.25977,-3.5957 -0.22568,-0.79353 -1.19371,-3.60403 -1.41211,-4.33203 -0.0291,-0.0728 -0.0941,-0.22656 -0.15234,-0.22656 z m 19.29883,0 c -0.0582,0 -0.10884,0.0522 -0.18164,0.125 a 3.8948265,3.8948265 0 0 1 -1.22266,0.61914 c -0.12376,0.0291 -0.125,0.0721 -0.125,0.12304 a 0.32760223,0.32760223 0 0 0 0.0742,0.15235 c 0.10192,0.0728 0,0.29225 0,0.41601 l -1.20899,3.2461 c -0.37128,1.03376 -1.26686,3.2626 -1.39062,3.48828 -0.2184,0.38584 -0.44495,0.56055 -0.78711,0.56055 h -0.36328 c -0.0801,0 -0.0801,0.0209 -0.0801,0.0937 v 0.23242 c 0,0.0874 -0.0874,0.16015 0.0801,0.16015 h 1.36133 1.55859 c 0.0946,0 0.0937,-0.0424 0.0937,-0.11523 v -0.31445 c 0,-0.0582 -0.0211,-0.0566 -0.12305,-0.0566 h -0.51757 c -0.24753,0 -0.44336,-0.13867 -0.44336,-0.29883 a 1.2157683,1.2157683 0 0 1 0,-0.26172 c 0.0437,-0.33488 0.66956,-2.10475 0.77148,-2.38867 h 2.86719 c 0.13104,0.45864 0.62659,2.03887 0.72851,2.49023 0.0728,0.33488 -0.0216,0.45899 -0.37109,0.45899 h -0.32031 c -0.10192,0 -0.10157,0.0209 -0.10157,0.0937 v 0.24804 c 0,0.0728 0.0284,0.14453 0.12305,0.14453 h 1.73242 1.83594 c 0.12376,0 0.12305,-0.0717 0.12305,-0.14453 v -0.26172 c 0,-0.0801 -0.0288,-0.0801 -0.10157,-0.0801 h -0.39257 a 0.94640644,0.94640644 0 0 1 -0.79493,-0.57617 c -0.17472,-0.33488 -0.96856,-2.63473 -1.25976,-3.5957 -0.22568,-0.79353 -1.19371,-3.60403 -1.41211,-4.33203 -0.0291,-0.0728 -0.0941,-0.22656 -0.15234,-0.22656 z m -69.058595,0.25781 a 4.2442689,4.2442689 0 0 0 -3.34961,1.55664 4.9431537,4.9431537 0 0 0 -1.13477,3.07227 4.3680297,4.3680297 0 0 0 1.80469,3.63867 5.722119,5.722119 0 0 0 2.79687,0.8164 4.3680297,4.3680297 0 0 0 3.7129,-1.75586 4.3170694,4.3170694 0 0 0 0.91601,-2.72265 4.6228315,4.6228315 0 0 0 -1.68164,-3.63867 4.3680297,4.3680297 0 0 0 -2.91211,-0.96094 4.2442689,4.2442689 0 0 0 -0.15234,-0.006 z m 21.107415,0.002 a 4.2733891,4.2733891 0 0 0 -3.0664,1.29102 4.7902726,4.7902726 0 0 0 -1.25977,3.3125 4.695632,4.695632 0 0 0 1.33203,3.34179 4.6155514,4.6155514 0 0 0 6.92969,-0.91601 0.10192069,0.10192069 0 0 0 0,-0.125 l -0.21094,-0.19532 c -0.0364,-0.0364 -0.0868,-0.001 -0.15234,0.0859 a 3.6400248,3.6400248 0 0 1 -2.95508,1.45703 2.6717782,2.6717782 0 0 1 -2.12695,-0.96875 5.0013941,5.0013941 0 0 1 -1.13477,-3.2246 c 0,-1.77634 0.82256,-3.56055 2.80274,-3.56055 a 2.9120198,2.9120198 0 0 1 2.125,0.94726 4.2151487,4.2151487 0 0 1 0.96875,1.60743 c 0.0364,0.12376 0.0732,0.125 0.13867,0.125 l 0.23242,-0.0801 c 0.051,-0.007 0.0508,-0.0449 0.0508,-0.125 -0.051,-0.38585 -0.29883,-2.3718 -0.29883,-2.56836 0,-0.19656 -0.0282,-0.19727 -0.17382,-0.19727 -0.1456,0 -0.19727,-5.3e-4 -0.19727,0.0723 l -0.10156,0.32031 c -0.0218,0.10192 -0.0733,0.10192 -0.24805,0 a 5.3726766,5.3726766 0 0 0 -2.49609,-0.5957 4.2733891,4.2733891 0 0 0 -0.15821,-0.004 z m -8.41796,0.0762 a 3.7346654,3.7346654 0 0 1 -0.47266,0.0508 h -4.230465 -2.00977 c -0.051,0 -0.0937,0.0213 -0.0937,0.0723 v 0.35742 c 0,0.0655 0.0428,0.0645 0.0937,0.0645 h 0.68555 c 0.32032,0 0.49414,0.20543 0.49414,0.34375 v 2.4375 0.83789 c 0,2.13306 -0.0225,3.72833 -0.0371,3.93946 -0.0146,0.21112 -0.11558,0.26171 -0.41407,0.26171 h -0.50195 a 0.06552045,0.06552045 0 0 0 -0.0723,0.0723 v 0.33399 c 0,0.0801 0.0286,0.0801 0.0723,0.0801 h 1.76172 1.82617 c 0.10192,0 0.10352,-0.0209 0.10352,-0.0937 v -0.3125 c 0,-0.0801 -0.0234,-0.0801 -0.10352,-0.0801 h -0.66211 c -0.29848,0 -0.40039,-0.051 -0.40039,-0.40039 v -3.08008 a 10.061029,10.061029 0 0 1 1.45703,0.0723 0.95368649,0.95368649 0 0 1 0.619145,0.50977 3.530824,3.530824 0 0 1 0.18164,0.58203 c 0.0146,0.0946 0.0506,0.0957 0.10156,0.0957 l 0.26953,-0.0508 c 0.0728,-0.007 0.0723,-0.0376 0.0723,-0.125 -0.0218,-0.24753 -0.0723,-0.83717 -0.0723,-1.28125 v -1.41211 c 0,-0.0728 -0.0291,-0.0723 -0.0801,-0.0723 h -0.24805 c -0.0437,0 -0.0937,0.0506 -0.0937,0.10156 a 2.2422553,2.2422553 0 0 1 -0.22656,0.63281 0.93184634,0.93184634 0 0 1 -0.654305,0.48047 10.111989,10.111989 0 0 1 -1.32617,0.0586 l 0.008,-3.95898 c 0.4732,0 2.082015,0.0497 2.402335,0.11523 a 1.5579306,1.5579306 0 0 1 0.84375,0.56836 8.080855,8.080855 0 0 1 0.88868,1.13477 c 0.0728,0.10192 0.1028,0.10351 0.14648,0.10351 l 0.24023,-0.10351 v -0.0937 c 0,-0.13104 -0.49609,-1.96644 -0.49609,-2.06836 0,-0.10192 -0.0286,-0.17383 -0.0723,-0.17383 z m 63.9414,0.0137 c -0.10192,0 -0.10351,0.0229 -0.10351,0.0957 v 0.29102 a 0.10920074,0.10920074 0 0 0 0.10351,0.10937 h 0.51563 c 0.32032,0 0.35671,0.23224 0.40039,0.44336 0.0437,0.21112 0.0449,1.52288 0.0449,2.31641 v 0.72656 c 0,0.74256 -0.0449,3.90234 -0.0449,4.0625 0,0.16016 -0.0794,0.33594 -0.52344,0.33594 h -0.49609 c -0.0728,0 -0.0723,0.021 -0.0723,0.0937 v 0.2832 c 0,0.1092 -0.044,0.10937 0.10156,0.10937 h 1.70313 5.14844 c 0.0728,-0.3276 0.61914,-2.38813 0.61914,-2.46093 v -0.12305 l -0.21875,-0.0879 c -0.0728,-0.0218 -0.0955,-1.8e-4 -0.14649,0.0508 -0.20384,0.46592 -0.93215,1.95277 -1.66015,2.05469 a 19.947336,19.947336 0 0 1 -2.07422,0.0645 h -0.72852 c -0.0437,-0.51689 -0.043,-3.20934 -0.043,-3.42774 v -1.07031 c 0,-0.88817 0.043,-2.73739 0.043,-2.91211 0,-0.33488 0.0506,-0.45898 0.42188,-0.45898 h 0.66992 c 0.12376,0 0.125,-0.0506 0.125,-0.10157 v -0.28515 c 0,-0.0582 -0.0231,-0.10938 -0.125,-0.10938 H 167.906 Z m 12.80274,0.0215 a 0.0873606,0.0873606 0 0 0 -0.0859,0.0742 v 0.33398 a 0.0873606,0.0873606 0 0 0 0.0957,0.0879 h 0.54492 c 0.54601,0 0.60547,0.28444 0.60547,0.72852 v 2.11719 c 0,0.22568 -0.0744,3.27039 -0.18359,4.13672 -0.0655,0.42952 -0.19495,0.88085 -0.61719,0.88085 h -0.56836 c -0.0801,0 -0.0801,0.0723 -0.0801,0.0723 v 0.30469 c 0,0.1092 -0.0513,0.10938 0.10157,0.10938 h 1.60937 1.41211 c 0.12376,0 0.12305,-0.0428 0.12305,-0.0937 v -0.3125 c 0,-0.0364 -0.0288,-0.0801 -0.10156,-0.0801 h -0.54493 c -0.39312,0 -0.53888,-0.47318 -0.58984,-1.04102 -0.0655,-0.80808 -0.0664,-2.90571 -0.0664,-3.05859 0,-0.15288 0.0155,-3.26864 0.0664,-3.44336 0.1456,0.15288 1.28746,2.91901 1.50586,3.49414 0.0728,0.19656 1.68146,3.97602 1.73242,4.1289 0.051,0.15289 0.0735,0.22461 0.19727,0.22461 0.12376,0 0.22638,-0.14577 0.27734,-0.26953 0.051,-0.12376 1.36026,-3.12303 1.50586,-3.44336 0.1456,-0.32032 1.712,-3.93074 1.80664,-4.10547 h 0.0508 v 3.48633 l 0.0137,0.69922 c 0,1.00465 -0.0351,2.78835 -0.0351,2.91211 -0.0364,0.35672 -0.13174,0.4375 -0.35742,0.4375 h -0.76563 c -0.10192,0 -0.10156,0.021 -0.10156,0.0937 v 0.28516 c 0,0.0655 -0.0659,0.10937 0.10156,0.10937 h 1.85742 1.82813 c 0.10192,0 0.10156,-0.0444 0.10156,-0.11719 V 34.0489 c 0,-0.0364 -0.001,-0.0801 -0.0742,-0.0801 h -0.66797 c -0.22568,0 -0.34961,-0.204 -0.34961,-0.66992 v -2.75977 -0.86523 c 0,-0.3276 -0.007,-2.81019 0,-3.07227 0.007,-0.26208 0.0351,-0.48047 0.35547,-0.48047 h 0.54688 c 0.0946,0 0.0937,-0.0522 0.0937,-0.125 v -0.26172 c 0,-0.0582 0.0733,-0.10937 -0.0723,-0.10937 h -2.37305 c -0.29848,0 -0.48828,0.0227 -0.48828,0.14648 -0.0582,0.24753 -1.17275,2.7942 -1.39844,3.31836 -0.32032,0.72801 -1.19939,2.77379 -1.30859,2.99219 -0.364,-1.01193 -2.10474,-5.11644 -2.54883,-6.28125 a 0.27664188,0.27664188 0 0 0 -0.29882,-0.21094 h -1.08399 -1.76172 a 0.0873606,0.0873606 0 0 0 -0.01,-0.002 z m -52.00586,0.0137 a 0.36400248,0.36400248 0 0 0 -0.0371,0.002 h -0.3418 -0.54687 -1.09961 -0.38477 c -0.0728,0 -0.0723,0.0213 -0.0723,0.0723 v 0.33594 c 0,0.051 0.0213,0.0859 0.0723,0.0859 h 0.39258 c 0.546,0 0.96875,0.58254 0.96875,1.31054 v 1.57422 c 0,1.98018 -0.0879,3.71129 -0.0879,3.92969 -0.0582,0.75712 -0.23241,1.03516 -0.55274,1.03516 h -0.42187 a 0.0728005,0.0728005 0 0 0 -0.0742,0.0723 v 0.30468 c 0,0.1092 -0.0495,0.10938 0.0742,0.10938 h 1.28711 1.33203 c 0.10192,0 0.10352,-0.0209 0.10352,-0.0937 v -0.28321 c 0,-0.0655 -0.002,-0.10937 -0.10352,-0.10937 h -0.32031 c -0.44409,0 -0.61719,-0.29916 -0.61719,-0.91797 -0.0218,-0.38584 -0.125,-2.11872 -0.125,-4.22266 l 0.0215,-1.49218 h 0.0742 c 0.15288,0.17472 2.1479,2.61984 2.30078,2.8164 0.15288,0.19656 1.11219,1.3629 1.97852,2.42578 0.77168,0.91729 1.44247,1.68874 1.53711,1.8125 a 0.64064436,0.64064436 0 0 0 0.42187,0.19532 c 0.1456,0 0.14649,-0.17294 0.14649,-0.34766 v -3.28516 c 0,-1.26672 0.12393,-3.33324 0.18945,-4.17773 0.0364,-0.45864 0.15873,-0.65625 0.40625,-0.65625 h 0.3418 c 0.0801,0 0.0801,-0.0503 0.0801,-0.12305 v -0.2832 c 0,-0.0364 0.0298,-0.0879 -0.12305,-0.0879 h -1.19336 -1.38281 c -0.10192,0 -0.10352,0.0209 -0.10352,0.0937 v 0.29297 c 0,0.0582 0,0.10742 0.0801,0.10742 h 0.39453 a 0.66976456,0.66976456 0 0 1 0.6543,0.4668 c 0.0655,0.21112 0.13867,1.42665 0.13867,1.89258 v 2.33007 1.28907 h -0.043 c -0.20384,-0.24752 -2.13387,-2.6511 -2.30859,-2.84766 -0.24752,-0.34944 -2.67116,-3.39186 -2.79492,-3.51562 a 0.36400248,0.36400248 0 0 0 -0.26172,-0.11133 z m 17.00586,0.002 c -0.0582,0 -0.10938,0.0213 -0.10938,0.0723 v 0.33594 a 0.09464064,0.09464064 0 0 0 0.10156,0.0859 h 0.66211 c 0.24752,0 0.42933,0.15447 0.45118,0.34375 0.0218,0.18928 0.0742,1.94335 0.0742,2.26367 l 0.006,0.94531 c 0,0.93913 -0.0495,3.7713 -0.0859,3.98242 -0.0364,0.21112 -0.16069,0.31446 -0.40821,0.31446 h -0.72851 c -0.0946,0 -0.0937,0.0213 -0.0937,0.0723 v 0.30468 c 0,0.1092 0.0213,0.10938 0.0723,0.10938 h 1.75391 2.35156 c 0.84449,0 2.77393,-0.006 3.98242,-1.31641 a 4.3680297,4.3680297 0 0 0 1.2168,-3.24805 3.8802664,3.8802664 0 0 0 -1.38477,-3.13671 c -1.14296,-0.96825 -2.47491,-1.12891 -4.13476,-1.12891 h -1.85547 z m 30.02929,0 c -0.0728,0 -0.0723,0.0224 -0.0723,0.0879 v 0.32024 c 0,0.0874 0.0209,0.0859 0.0937,0.0859 h 0.64843 c 0.34217,0 0.46556,0.12535 0.50196,0.42383 v 2.68555 0.85937 c 0,0.66977 -0.043,3.34091 -0.043,3.51563 -0.051,0.364 -0.32865,0.36523 -0.57617,0.36523 h -0.49414 c -0.0946,0 -0.0937,0.0213 -0.0937,0.0723 v 0.33398 c 0,0.0801 -0.03,0.0801 0.0937,0.0801 h 1.9082 1.80469 c 0.0801,0 0.12304,-0.021 0.12304,-0.0937 v -0.3125 c 0,-0.0801 -0.0428,-0.0801 -0.0937,-0.0801 h -0.52343 c -0.29121,0 -0.4961,-0.0508 -0.4961,-0.45117 v -3.10156 l 0.0371,-0.96875 v -2.99219 c 0,-0.24024 0.2033,-0.33593 0.47266,-0.33593 h 0.47266 a 0.09464064,0.09464064 0 0 0 0.0957,-0.10157 v -0.2832 c 0,-0.0582 0.079,-0.10938 -0.0957,-0.10938 h -1.76172 z m 17.33399,0 c -0.0728,0 -0.0723,0.0224 -0.0723,0.0879 v 0.32024 c 0,0.0874 0.0288,0.0859 0.10156,0.0859 h 0.64063 c 0.34944,0 0.50977,0.12535 0.50977,0.42383 0.0364,0.16016 0.0371,2.38706 0.0371,2.68555 v 0.85937 c 0,0.66977 -0.0527,3.34091 -0.0527,3.51563 -0.0437,0.364 -0.31888,0.36523 -0.56641,0.36523 h -0.49609 c -0.10192,0 -0.10156,0.0213 -0.10156,0.0723 v 0.33398 c 0,0.0801 -0.0222,0.0801 0.10156,0.0801 h 1.9082 1.80469 c 0.0728,0 0.125,-0.021 0.125,-0.0937 v -0.3125 c 0,-0.0801 -0.0525,-0.0801 -0.10352,-0.0801 h -0.51562 c -0.29848,0 -0.49609,-0.0508 -0.49609,-0.45117 v -3.10156 -0.96875 -2.99219 c 0,-0.24024 0.19796,-0.33593 0.47461,-0.33593 h 0.46484 a 0.09464064,0.09464064 0 0 0 0.10156,-0.10157 v -0.2832 a 0.09464064,0.09464064 0 0 0 -0.10156,-0.10938 h -1.75391 z m 14.47265,0 c -0.0728,0 -0.0723,0.0224 -0.0723,0.0879 v 0.32024 c 0,0.0874 0.0213,0.0859 0.0723,0.0859 h 0.47266 c 0.37128,0 0.49538,0.0948 0.53906,0.42969 0.051,0.17472 0.0508,1.71073 0.0508,2.72266 v 4.13671 c 0,0.45865 -0.0493,0.53711 -0.61718,0.53711 h -0.42383 c -0.12376,0 -0.12305,0.0229 -0.12305,0.0957 v 0.29883 c 0,0.0946 0.0288,0.0937 0.10156,0.0937 h 0.53125 1.05664 4.11915 1.0996 a 0.26208178,0.26208178 0 0 0 0.26954,-0.18164 l 0.59765,-1.85547 c 0.0437,-0.0582 0.0364,-0.125 0,-0.125 l -0.20508,-0.12304 c -0.0437,-0.0218 -0.0872,-0.0147 -0.13086,0.0508 -0.24024,0.29848 -0.93198,1.11398 -1.15039,1.31054 a 2.1840149,2.1840149 0 0 1 -1.06836,0.44336 c -0.24752,0.051 -0.81728,0.0508 -1.04296,0.0508 a 3.7856258,3.7856258 0 0 1 -0.96094,-0.10156 c -0.27664,-0.0728 -0.49414,-0.32083 -0.49414,-0.96875 v -2.10352 -0.76367 a 14.312577,14.312577 0 0 1 1.45508,0.0801 0.72800496,0.72800496 0 0 1 0.61914,0.44336 3.8729864,3.8729864 0 0 1 0.19726,0.61914 c 0.0291,0.0874 0.0506,0.0879 0.10156,0.0879 l 0.26954,-0.0508 c 0.10192,-0.0146 0.10156,-0.0224 0.10156,-0.0879 -0.0218,-0.26936 -0.0723,-0.86628 -0.0723,-1.36133 v -1.33984 c 0.0146,-0.0946 -0.0213,-0.0937 -0.0723,-0.0937 h -0.32032 a 0.0873606,0.0873606 0 0 0 -0.10156,0.0937 1.9728934,1.9728934 0 0 1 -0.19726,0.69141 0.67704461,0.67704461 0 0 1 -0.56836,0.44336 12.245043,12.245043 0 0 1 -1.41211,0.0664 v -3.57422 l 1.88476,0.0508 a 2.0384139,2.0384139 0 0 1 0.93946,0.32031 11.881041,11.881041 0 0 1 1.36132,1.38281 c 0.0364,0.0655 0.073,0.0664 0.10938,0.0664 l 0.22656,-0.10156 c 0.0364,-0.0218 0.0861,-0.0149 0.0352,-0.13867 -0.051,-0.12376 -0.55185,-1.894 -0.56641,-1.9668 -0.0146,-0.0728 -0.038,-0.0723 -0.10351,-0.0723 h -0.49414 -3.93164 -0.34961 c -1.00465,0.051 -1.46306,0 -1.73243,0 z m 8.27735,0 c -0.0655,0 -0.11524,0.0213 -0.11524,0.0723 v 0.33594 a 0.09464064,0.09464064 0 0 0 0.10157,0.0859 h 0.66992 c 0.24752,0 0.42152,0.15447 0.44336,0.34375 0.0218,0.18928 0.0723,1.94335 0.0723,2.26367 l 0.0156,0.94531 c 0,0.93913 -0.0515,3.7713 -0.0879,3.98242 -0.0364,0.21112 -0.16068,0.31446 -0.40821,0.31446 h -0.72656 c -0.10192,0 -0.10351,0.0213 -0.10351,0.0723 v 0.30468 c 0,0.1092 0.0232,0.10938 0.0742,0.10938 h 1.76172 2.34375 c 0.84449,0 2.77252,-0.006 3.98828,-1.31641 a 4.40443,4.40443 0 0 0 1.20899,-3.24805 3.8802664,3.8802664 0 0 0 -1.38281,-3.13671 c -1.13569,-0.96825 -2.47492,-1.12891 -4.13477,-1.12891 h -1.85742 z M 89.511495,25.99811 a 2.1330545,2.1330545 0 0 1 0.21289,0.0137 c 1.18665,0 3.02149,1.53543 3.02149,4.23632 0,1.03377 -0.41506,3.8086 -2.91211,3.8086 -1.04105,0 -3.02149,-1.15136 -3.02149,-4.36914 a 4.4553903,4.4553903 0 0 1 1.07031,-3 h 0.0234 a 2.1330545,2.1330545 0 0 1 1.60547,-0.68946 z m 128.222655,0.0273 a 1.6452912,1.6452912 0 0 1 0.16406,0.008 3.9530669,3.9530669 0 0 1 2.77344,1.16406 4.3680297,4.3680297 0 0 1 0.99024,2.70117 4.6446716,4.6446716 0 0 1 -0.89649,2.81836 3.2469021,3.2469021 0 0 1 -2.60547,1.28711 1.4050496,1.4050496 0 0 1 -1.09179,-0.33398 1.1284077,1.1284077 0 0 1 -0.21875,-0.72852 v -3.02148 l 0.0371,-0.88672 v -2.33008 a 0.58240397,0.58240397 0 0 1 0.21679,-0.54688 1.6452912,1.6452912 0 0 1 0.63086,-0.13086 z m -70.13476,0.0371 a 1.616171,1.616171 0 0 1 0.16211,0.008 3.9312268,3.9312268 0 0 1 2.76562,1.16406 4.2952292,4.2952292 0 0 1 0.99023,2.70117 4.6883519,4.6883519 0 0 1 -0.88671,2.81641 3.2541822,3.2541822 0 0 1 -2.57813,1.25195 c -0.46592,0 -0.93838,-0.10102 -1.08398,-0.33398 a 1.0920074,1.0920074 0 0 1 -0.22657,-0.72852 v -3.02147 -0.85156 -2.32813 a 0.57512392,0.57512392 0 0 1 0.22657,-0.54687 1.616171,1.616171 0 0 1 0.63086,-0.13086 z m -28.4043,0.79296 c 0.051,0 0.0503,-0.0288 0.12305,0.21875 0.0728,0.24753 0.91725,3.07297 1.04101,3.42969 h -2.57617 c 0.0874,-0.28392 1.21555,-3.3718 1.25195,-3.48828 0.0364,-0.11648 0.1092,-0.16016 0.16016,-0.16016 z m 19.20508,0 c 0.051,0 0.0502,-0.0288 0.12304,0.21875 0.0728,0.24753 0.91726,3.07297 1.04102,3.42969 h -2.57617 c 0.0874,-0.28392 1.21555,-3.3718 1.25195,-3.48828 0.0364,-0.11648 0.1092,-0.16016 0.16016,-0.16016 z m 19.32031,0 c 0.051,0 0.0522,-0.0288 0.125,0.21875 0.0728,0.24753 0.91725,3.07297 1.04102,3.42969 h -2.57813 c 0.0874,-0.28392 1.21555,-3.3718 1.25195,-3.48828 0.0364,-0.11648 0.1092,-0.16016 0.16016,-0.16016 z" style="fill:#221e1f;fill-opacity:1;stroke-width:0.72800493"/>
</svg>